<svg role="img" viewBox="0 0 24 24" xmlns="http://www.w3.org/2000/svg"><title>Gatus</title><path d="M12.00781.01172c-2.42776 0-2.46053.04582-2.35742.86133.2859 2.16999-2.51622 3.34232-3.86133 1.60351-.52023-.6749-.56276-.67434-2.32031 1.11133-1.66381 1.68256-1.69209 1.67742-1.00781 2.20703.77332.59523 1.05463 1.64037.67969 2.54492-.389.90456-1.34156 1.43358-2.31641 1.29297C-.00066 9.5344 0 9.56288 0 12.09375c.02343 2.30122-.00026 2.35233.88086 2.2539 1.18107-.1406 2.25393.7037 2.39453 1.88477.07968.67959-.16726 1.35945-.66406 1.82813-.80144.75457-.76071.6975.75781 2.26758 1.4529 1.50446 1.69226 1.80072 2.17969 1.40234l3.53906-3.53906c.1781-.15936.19255-.43519.0332-.61329-.0328-.04217-.075-.07031-.11718-.09374-3.02299-1.65445-4.13374-5.45163-2.47461-8.47461.57647-1.04985 1.44351-1.9165 2.49804-2.48829.3234-.1781.66412-.32423 1.01563-.4414 2.53556-.80144 4.2668-3.14337 4.29492-5.80078-.15935-.26715-.69438-.26758-2.33008-.26758Zm6.75586 2.06445c-.0421-.00379-.08047 0-.11914.01172L14.9043 5.83203c-.17341.17341-.17341.44964 0 .62305.02812.02812.06016.05742.09766.07617 3.02298 1.65913 4.12983 5.44967 2.4707 8.47266-.57648 1.04984-1.44352 1.91258-2.49805 2.48437-.43587.22966-.89108.40861-1.36914.53516-2.28247.60928-3.9375 2.57262-3.9375 4.93945v.3379c.04218.67958.31903.6457 2.15625.67382 2.49338.03749 2.43283.09433 2.50781-1.2461.0703-1.19513 1.09784-2.10936 2.29297-2.03906.55305.03281 1.07154.27663 1.45118.6797.80144.84362.63736.82865 2.33398-.83985 1.75286-1.72943 1.83269-1.67277.98437-2.44141-.8858-.80613-.95066-2.17474-.14453-3.06055.44993-.49211 1.10205-.75468 1.76758-.70312.98423.0703.93594.01452.96875-2.16016.03749-2.45588.07482-2.48476-1.14844-2.49414-1.19513-.00937-2.16054-.98768-2.14648-2.1875.00468-.61866.27819-1.20553.74218-1.61328.76395-.67021.75287-.6319-.95312-2.33789-1.00884-1.00883-1.42204-1.42855-1.7168-1.45508ZM11.00391 8.2129c-.11249 0-.20508.08869-.20508.20117v2.09961c0 .11249-.0887.20703-.20117.20703H8.48242c-.11248 0-.20508.0887-.20508.20117v2.15625c0 .11249.0926.20704.20508.20704h2.0957c.11249 0 .20704.08869.20704.20117v2.10351c.0047.11249.09728.19805.20507.19336h2.13672c.11249 0 .20703-.09064.20703-.20312v-2.09375c0-.11249.0887-.20117.20118-.20117h2.0996c.11249 0 .20704-.09455.20704-.20704v-2.15625c0-.11248-.09455-.20117-.20703-.20117h-2.08008c-.11249 0-.20703-.08869-.20703-.20117v-2.0996c0-.1125-.0887-.20704-.20118-.20704z"/></svg>