<svg role="img" viewBox="0 0 24 24" xmlns="http://www.w3.org/2000/svg"><path d="M19.8143 12.0199c-.9968 4.9407-6.0325 7.7887-8.864 11.3287h-2.571s7.5968-7.6374 11.435-11.3287zm-8.2194 2.0895 6.7817-6.7099c.4093.4675.5642.8505.808 1.5918l-5.9672 5.9956-6.2849 6.2854-2.489-.1042zm-1.2652 4.3418 5.6836-5.6841 5.6836-5.6842H24l-5.8018 5.9373-5.8018 5.8012c-.8413-.0513-1.268-.0907-2.0667-.3702zm4.726-13.6337c.0397-.0392.7976.221 1.4315.7593l-6.0948 6.0835-6.2637 6.2642H1.7923ZM6.6308 15.9687l6.3329-6.3333 6.3328-6.3334h2.3986L7.8921 17.1475Zm5.2693-11.7759-9.4086 9.41L0 13.6007C3.4373 10.691 7.9313 4.311 11.9 4.1926ZM5.4745 13.548c-.1556-.5227-.3087-1.3823-.2984-1.985L16.0864.6513h2.4386z" style="fill:#d1d5db;fill-opacity:1"/></svg>