<?xml version="1.0" encoding="UTF-8" standalone="no"?>
<svg
   role="img"
   viewBox="0 0 574.91101 575.99994"
   version="1.1"
   id="svg1"
   sodipodi:docname="tubearchivist.svg"
   width="574.91101"
   height="575.99994"
   xmlns:inkscape="http://www.inkscape.org/namespaces/inkscape"
   xmlns:sodipodi="http://sodipodi.sourceforge.net/DTD/sodipodi-0.dtd"
   xmlns="http://www.w3.org/2000/svg"
   xmlns:svg="http://www.w3.org/2000/svg">
  <defs
     id="defs1" />
  <sodipodi:namedview
     id="namedview1"
     pagecolor="#ffffff"
     bordercolor="#000000"
     borderopacity="0.25"
     inkscape:showpageshadow="2"
     inkscape:pageopacity="0.0"
     inkscape:pagecheckerboard="0"
     inkscape:deskcolor="#d1d1d1" />
  <title
     id="title1">Tube Archivist</title>
  <path
     d="m 5.7982,22.6128 c -0.0724,0.098 -0.1434,0.197 -0.2148,0.2957 -0.2366,-0.1767 -0.473,-0.3534 -0.7094,-0.5302 0.5362,-0.7468 1.0822,-1.4895 1.6243,-2.233 l 0.7138,0.5242 -0.23,0.3157 c 1.4636,0.756 5.5912,2.365 10.0807,-0.5811 0.3891,0.5378 0.7864,1.0699 1.1676,1.6134 -3.6155,2.601 -8.4755,2.4749 -12.4322,0.5953 z m 11.7872,-3.2307 0.7163,-0.5202 0.2405,0.3116 c 0.2818,-0.2827 0.3509,-0.361 0.6364,-0.699 -1.1731,-3.302 -2.3441,-6.6046 -3.5158,-9.907 L 12.1156,18.476 9.6783,18.472 14.552,5.589 h 2.2146 c 1.1059,2.9181 3.8926,10.3463 3.9177,10.3839 1.0217,-2.579 0.8631,-4.5153 0.4145,-6.3227 0.7232,-0.2256 1.8583,-0.5417 1.9093,-0.551 1.4666,5.6363 -1.1718,9.5802 -3.2848,11.7037 0.0683,0.103 0.1439,0.201 0.2168,0.3007 -0.0404,0.0384 -0.6811,0.5096 -0.7205,0.5213 -0.5368,-0.7531 -1.1035,-1.4854 -1.6342,-2.2428 z M -0.17749998,10.0677 c -0.1116,-0.039 -0.23,-0.07 -0.3446,-0.1036 0.0798,-0.2825 0.1565,-0.5661 0.2438,-0.8465 L 2.3671,9.8668 c -0.0753,0.2686 -0.2357,0.8425 -0.2382,0.8526 l -0.3792,-0.1 c -0.5594,2.4833 0.3138,6.7128 3.6283,9.3415 L 4.2092,21.575 C -0.70319998,17.871 -0.53019998,12.424 -0.17749998,10.0678 Z M 13.2924,16.3457 c 0.2124,-0.2036 0.4152,-0.4173 0.6327,-0.6155 l 0.951,0.9728 0.01,-4.4808 c 0.3097,-0.8917 1.3669,-0.6962 1.4934,0.0867 l 0.006,4.3948 0.9782,-0.9722 c 0.2113,0.2018 0.4188,0.4075 0.6275,0.612 -0.7894,0.7914 -1.5837,1.578 -2.3766,2.366 -0.773,-0.789 -1.5477,-1.5763 -2.3222,-2.3638 z M 5.422,13.4231 h 2.29 v 5.0533 h -2.29 z m -0.1162,-1.9706 2.686,0.006 c 0.9961,0.2773 0.717,1.4191 -0.094,1.5195 l -2.652,-0.002 c -0.996,-0.1957 -0.9794,-1.422 0.06,-1.5235 z M 5.422,7.6122 H 2.7362 C 2.539,7.9839 2.3777,8.3722 2.2257,8.764 l -1.91339998,-0.5532 -0.001,-0.002 C 1.2519,5.7187 3.8031,1.2285 10.1234,0.3858 V 0 h 0.8867 V 2.772 H 10.1234 V 2.3846 C 9.0304,2.3623 5.6859,3.6915 4.277,5.4401 l 7.0689,-0.01 c -0.0054,0.7271 8e-4,1.454 0.012,2.1809 H 7.7252 c -0.014,1.1305 -0.012,2.2612 -0.012,3.3918 h -2.29 C 5.422,9.8726 5.4221,8.7424 5.4221,7.6122 Z M 20.0459,7.9566 C 20.2206,7.8958 20.3903,7.8619 20.4109,7.8481 18.1824,3.4061 13.7986,2.2979 12.0335,2.293 V 0.297 c 7.0074,0.367 9.8707,6.0252 10.3131,7.0002 0.1223,-0.0395 0.247,-0.0717 0.3705,-0.1075 0.0908,0.2794 0.1672,0.5665 0.2477,0.8502 -0.8934,0.2558 -1.7883,0.512 -2.6835,0.7635 z"
     id="path1"
     style="fill:#d1d5db;fill-opacity:1" />
</svg>
